<svg version="1.1" id="Layer_1" xmlns="http://www.w3.org/2000/svg" xmlns:xlink="http://www.w3.org/1999/xlink" x="0px" y="0px"
	 width="100%" viewBox="0 0 1024 1024" enable-background="new 0 0 1024 1024" xml:space="preserve">
<path fill="#000000" opacity="1.000000" stroke="none" 
	d="
M1.000000,610.000000 
	C1.000000,572.312439 1.000000,534.624878 1.192821,496.654449 
	C1.984092,497.169189 2.779849,498.383392 3.731462,497.538788 
	C6.958770,494.674286 10.459171,495.427429 14.101935,496.207153 
	C17.653130,496.967224 19.912451,494.986816 21.156965,492.004944 
	C22.107325,489.727875 22.743866,487.241211 23.053482,484.788910 
	C24.370575,474.356934 26.583509,464.104004 28.897692,453.865387 
	C29.376305,451.747894 29.566748,449.384369 31.069414,447.810211 
	C37.865974,440.690399 38.317398,431.647247 38.969242,422.657623 
	C39.187180,419.651947 39.166840,416.563385 40.733139,413.921021 
	C47.085983,403.203613 52.976486,392.247253 58.656120,381.156372 
	C61.843254,374.932709 66.162804,369.459686 71.917686,365.123322 
	C80.180954,358.896881 89.623444,355.261719 99.195198,351.865295 
	C110.306892,347.922424 121.265793,344.058075 133.585419,344.820190 
	C145.651520,345.566589 155.699219,340.957489 161.298599,329.128235 
	C163.067841,325.390503 166.536774,322.876984 170.471771,321.850037 
	C178.784210,319.680695 182.873428,313.816498 184.908920,306.167389 
	C186.345871,300.767609 188.880295,296.347198 193.615555,293.260590 
	C196.093567,291.645355 197.410339,289.304718 196.370987,286.407166 
	C192.535904,275.715607 194.102020,264.659912 194.091507,253.733002 
	C194.086914,248.943054 193.368759,243.980713 195.169205,239.356583 
	C198.968094,229.599762 201.990784,219.525070 207.062317,210.279968 
	C208.439926,207.768677 209.767410,205.228836 212.190979,203.623703 
	C221.279236,197.604553 230.620132,192.206223 242.012451,192.072464 
	C245.387619,192.032852 248.826019,191.505630 251.529388,189.464218 
	C257.883026,184.666382 264.375702,184.768463 271.240204,188.044250 
	C273.490540,189.118103 275.923401,189.810364 278.170227,190.890518 
	C282.122009,192.790359 286.142303,192.972198 290.345978,191.977722 
	C305.060852,188.496567 319.341705,189.067474 332.917786,196.520920 
	C336.935669,198.726807 341.007080,198.687042 345.419098,197.032654 
	C351.140045,194.887451 356.527069,192.023315 362.747955,190.893387 
	C373.858643,188.875305 384.889313,189.375061 396.005096,189.981064 
	C399.701477,190.182587 402.793579,191.369125 405.465973,193.854630 
	C409.213226,197.339844 413.719116,199.588120 418.558228,200.892181 
	C431.136658,204.281876 443.352203,208.191483 453.855286,216.458344 
	C463.427155,223.992279 475.533813,226.508118 486.257629,231.748596 
	C497.460175,237.223007 509.326416,239.139862 521.354431,240.790924 
	C527.625366,241.651688 533.873291,241.565735 540.185059,240.129593 
	C548.639832,238.205902 557.172485,237.700684 564.209900,244.303131 
	C571.827209,251.449631 581.072510,253.904037 591.181946,254.395935 
	C597.773254,254.716660 603.815002,256.419922 609.013611,261.096710 
	C612.982117,264.666840 618.448669,265.004272 623.622009,265.464874 
	C625.221130,265.607239 626.481262,264.771332 627.667969,263.791687 
	C633.659058,258.845917 639.092712,253.628647 639.698242,245.113174 
	C639.843872,243.064362 641.330933,241.139694 642.015381,239.095734 
	C646.523621,225.631729 655.393616,217.630234 668.850830,211.992218 
	C682.385437,206.321716 695.599365,206.185898 709.267212,207.374771 
	C716.541443,208.007507 723.843689,209.953354 731.084717,209.095215 
	C735.806519,208.535599 739.509521,209.217392 743.241272,211.812088 
	C750.358398,216.760681 757.691589,221.340744 765.672791,224.835419 
	C769.213501,226.385788 771.981262,229.030762 774.694946,231.806656 
	C780.734680,237.984894 785.302673,245.748077 792.764709,250.338791 
	C799.493347,254.478333 805.660156,259.350372 811.094177,264.824768 
	C821.657959,275.466949 832.765625,285.406158 844.506714,294.694214 
	C849.176270,298.388214 853.092712,303.131958 854.447937,308.776031 
	C857.378052,320.979553 864.949646,331.224365 867.750000,343.555359 
	C870.524048,355.770508 879.010620,365.759735 883.497314,377.444855 
	C884.505920,380.071747 886.614746,382.142944 888.883118,383.918274 
	C892.882385,387.048309 895.994995,390.756409 897.806458,395.662903 
	C904.416321,413.566315 915.054260,429.263580 925.500854,445.016449 
	C934.227234,458.175385 941.210999,472.346893 949.682007,485.671814 
	C953.465149,491.622711 956.078491,498.322418 960.992798,503.664093 
	C963.459473,506.345276 965.738281,509.297241 967.573975,512.435608 
	C969.756226,516.166382 972.705627,518.834839 976.246765,521.185791 
	C979.249023,523.179077 983.101624,524.316711 984.791504,527.866638 
	C989.903870,538.606201 997.190979,547.869934 1004.052307,557.477356 
	C1008.272827,563.387085 1012.667053,567.930603 1020.260193,568.355103 
	C1022.199219,568.463440 1023.457581,570.044617 1025.000000,571.000000 
	C1025.000000,598.687561 1025.000000,626.375122 1024.605957,654.413818 
	C1020.258972,654.331238 1016.247559,654.186218 1012.365295,653.401978 
	C1004.913147,651.896790 1004.121582,652.345825 999.919861,658.979553 
	C995.305115,666.265442 991.503906,674.409180 984.235962,679.460754 
	C979.659180,682.641785 977.436462,686.479980 976.763977,691.707214 
	C976.359741,694.849060 975.895020,698.070923 973.595398,700.500366 
	C969.135376,705.212097 965.587158,710.745178 960.503113,714.895081 
	C955.899658,718.652649 953.999023,723.471558 954.463135,729.459534 
	C954.944214,735.666687 952.986450,740.775024 947.364380,744.372375 
	C942.056091,747.768921 936.570801,751.059998 932.496826,756.064148 
	C929.314453,759.973206 925.580017,763.324524 921.383240,766.019226 
	C917.735046,768.361755 917.467773,770.544312 920.551270,773.402222 
	C921.158630,773.965271 921.703186,774.612915 922.193726,775.282288 
	C925.226624,779.421936 923.754700,783.058655 918.637268,783.795776 
	C916.940613,784.040100 915.368958,784.253113 914.105530,785.531921 
	C911.745972,787.920105 908.598694,788.563599 905.503479,789.166992 
	C897.528809,790.721558 889.302246,791.129395 881.810608,794.805969 
	C879.535278,795.922668 877.185425,795.656372 874.579590,795.004272 
	C868.926941,793.589966 863.402588,790.307922 857.185974,793.012207 
	C855.807617,793.611755 854.334534,792.475952 852.901550,792.095825 
	C845.436157,790.115417 837.731201,789.700134 830.266174,791.233032 
	C826.903381,791.923523 823.701050,793.347717 820.149597,792.971069 
	C816.268677,792.559387 812.570129,793.063660 808.906555,794.519775 
	C802.426086,797.095520 795.615295,797.323853 788.738586,796.959717 
	C782.986511,796.655212 778.876404,794.134338 777.041504,788.532104 
	C776.309937,786.298645 775.263916,784.332275 772.741333,784.329956 
	C768.144714,784.325684 764.355774,782.169067 760.681824,779.972473 
	C753.593750,775.734680 745.726929,774.438049 737.798889,773.464905 
	C716.301208,770.826050 694.921387,767.710815 674.129089,761.317261 
	C665.499023,758.663635 656.623596,755.974426 648.742126,763.481567 
	C648.515808,763.697144 648.152649,763.811890 647.833313,763.880737 
	C637.938232,766.013184 630.170898,772.887939 620.662720,775.998230 
	C614.931152,777.873169 609.413513,779.831238 603.230225,779.386780 
	C596.966248,778.936523 590.731079,779.005371 585.259460,783.043579 
	C583.235901,784.537109 580.593567,784.678589 578.116089,785.096924 
	C572.382324,786.065369 566.312256,786.287903 561.039551,788.435669 
	C553.930176,791.331421 547.809570,789.516357 542.869568,785.379333 
	C537.657715,781.014587 531.887939,777.950256 526.074280,774.810364 
	C518.324158,770.624512 509.903320,768.371765 501.132812,769.010803 
	C495.004547,769.457336 489.024994,770.302368 482.846588,769.138000 
	C478.928101,768.399475 475.101257,769.283936 471.452209,771.632080 
	C465.966644,775.161926 459.368134,774.204773 455.979889,770.088135 
	C447.773895,760.118164 441.089722,758.499023 428.851929,762.453491 
	C420.649750,765.104004 412.225403,767.830261 403.401611,765.587830 
	C396.240173,763.767822 388.999146,763.221802 381.653290,762.936401 
	C372.365784,762.575439 362.579987,763.940857 355.208038,755.784485 
	C353.685516,754.099915 350.798676,752.992371 348.453094,752.821655 
	C338.359985,752.086731 328.162476,751.027893 318.498138,755.450989 
	C317.742767,755.796753 316.901428,756.087158 316.305908,756.629395 
	C309.446472,762.873901 301.152618,762.762451 292.795929,761.719971 
	C288.100037,761.134155 283.542297,760.984497 278.924988,762.117859 
	C272.637024,763.661255 266.779907,762.348267 261.064209,759.458801 
	C247.901825,752.804749 233.896469,750.601440 219.340927,752.595642 
	C214.819336,753.215149 210.402466,753.493530 205.933090,752.796875 
	C201.137192,752.049377 196.331924,751.987366 191.488251,751.978149 
	C182.758621,751.961609 174.198700,750.702759 166.270752,746.764038 
	C159.400940,743.350952 152.301971,740.578918 144.951416,738.403687 
	C133.275070,734.948181 122.370056,730.322205 115.757057,719.134033 
	C115.022194,717.890747 113.874893,716.631714 112.609352,716.003357 
	C103.632072,711.546265 96.468102,704.304443 87.392303,699.946960 
	C79.837570,696.319824 73.618416,690.929016 67.895683,684.636292 
	C60.751442,676.780518 54.352989,668.170959 45.809902,661.597473 
	C32.334106,651.228577 26.384541,637.143921 26.035618,620.396973 
	C25.940863,615.849121 25.030287,611.456848 22.634684,607.489502 
	C19.840942,602.862854 17.799549,602.589905 13.491317,605.870789 
	C10.805452,607.916138 8.232341,610.790466 4.204450,608.419434 
	C2.563939,607.453735 1.924293,609.164856 1.000000,610.000000 
M392.890472,541.441589 
	C403.983032,542.136108 414.954590,543.618164 425.958679,545.281311 
	C439.891388,547.387146 453.737732,549.959595 467.650970,552.144836 
	C471.772766,552.792175 483.003418,546.860168 482.945068,543.023865 
	C482.867279,537.909790 484.491486,532.853271 481.910767,527.442627 
	C478.492523,520.276001 473.769562,514.131836 469.258606,507.822052 
	C467.168213,504.898163 464.287994,502.480316 460.426605,501.012878 
	C456.571228,499.547699 453.012695,496.636810 450.095520,493.614960 
	C448.325043,491.780914 446.762329,490.813263 444.370178,490.341583 
	C435.032593,488.500305 426.058105,491.983154 416.766541,492.013153 
	C401.197479,492.063354 385.632935,494.017120 370.069702,495.211914 
	C355.656128,496.318481 341.241272,497.417572 326.840973,498.679626 
	C324.457031,498.888580 322.830658,498.781342 322.701691,495.994324 
	C322.412750,489.750000 321.709625,483.483917 321.985901,477.262726 
	C322.604248,463.338959 323.951172,449.447388 324.559967,435.523407 
	C325.104218,423.076050 326.703552,410.713928 326.981720,398.226685 
	C327.098511,392.984161 326.253479,388.873077 323.269470,384.885101 
	C320.708984,381.463074 321.777985,378.978943 326.208984,378.716797 
	C349.804047,377.320862 373.303680,374.187958 396.999634,374.651611 
	C405.249939,374.813049 412.144165,371.454498 418.616882,366.873749 
	C420.268097,365.705200 421.501282,364.094391 421.675476,361.921082 
	C422.310638,353.996216 422.745331,346.598755 415.834320,340.175781 
	C408.027588,332.920349 403.186340,322.148804 390.872437,320.684906 
	C390.442352,320.633789 390.005920,320.176483 389.675568,319.814392 
	C383.466064,313.007538 376.406677,314.676483 369.129242,317.622986 
	C365.576782,319.061371 362.694214,321.898071 359.270172,323.123718 
	C351.968292,325.737488 344.399567,327.779480 336.791595,329.324097 
	C325.282013,331.660858 313.707916,333.603241 302.019348,335.111664 
	C285.604340,337.230042 269.451721,341.318085 253.066162,343.750732 
	C242.742691,345.283386 232.690659,348.382751 222.105743,348.625305 
	C218.259430,348.713470 213.941315,347.358368 210.433365,349.517212 
	C200.409302,355.686249 189.256760,353.505829 178.516876,354.168976 
	C175.759384,354.339233 172.752655,352.839020 171.055939,356.155731 
	C169.478424,359.239532 171.632477,361.576935 173.183380,363.872864 
	C178.521255,371.774872 184.517853,379.296173 191.923477,385.193787 
	C202.395554,393.533447 213.403412,400.588898 228.315155,396.939240 
	C240.716415,393.904022 253.092819,390.598572 265.740784,388.525238 
	C270.205658,387.793304 271.160614,389.591156 271.409271,393.437653 
	C272.516632,410.568085 272.562653,427.719025 272.299347,444.861542 
	C272.141205,455.156799 272.427246,465.463348 272.732635,475.716675 
	C272.968628,483.640533 272.710266,491.608337 273.368042,499.528778 
	C273.636322,502.759521 272.475952,504.076599 268.955261,504.534363 
	C256.153473,506.198853 243.439041,508.529907 230.642273,510.240143 
	C220.772675,511.559174 211.388474,515.449768 201.280304,515.437500 
	C189.283203,515.422974 177.349243,516.928406 166.036789,520.650208 
	C152.243256,525.188354 138.615829,528.310303 124.139656,524.822510 
	C121.793892,524.257324 119.707542,525.284851 118.785271,527.507629 
	C117.936729,529.552673 116.912430,531.587158 118.660095,534.040283 
	C129.533859,549.302917 138.161041,566.449890 156.223679,575.349548 
	C161.311096,577.856201 167.433945,578.283386 172.179138,575.188904 
	C177.828903,571.504639 183.637054,567.545227 189.957932,565.515503 
	C203.332489,561.220825 216.984482,557.645203 230.711334,554.634888 
	C243.483704,551.833801 256.508514,550.192810 269.405121,547.943298 
	C272.883972,547.336609 273.124573,549.281555 273.405548,551.930969 
	C274.586029,563.062134 274.540863,574.240234 273.804443,585.342102 
	C273.467621,590.420166 275.896423,594.908081 274.929443,600.105286 
	C272.810242,611.495361 270.234863,622.906006 271.316895,634.675415 
	C271.850433,640.479126 271.887970,646.269287 268.995178,651.644348 
	C268.134796,653.242981 268.698639,654.843750 269.118347,656.488953 
	C271.187134,664.598389 274.642120,672.195190 278.058807,679.756775 
	C281.530396,687.439941 284.704773,695.337585 289.986694,702.096558 
	C291.161255,703.599548 292.308197,705.104370 294.238220,705.270203 
	C299.034851,705.682373 308.392365,699.492920 310.328918,694.592834 
	C315.906738,680.479431 319.421082,665.779602 320.453339,650.708435 
	C321.483459,635.668579 321.410248,620.546021 321.588257,605.456970 
	C321.757263,591.129700 321.623291,576.798889 321.626556,562.469604 
	C321.627686,557.470703 321.569092,552.470337 321.673187,547.473450 
	C321.745605,543.997192 322.791321,541.961792 327.106079,541.437866 
	C338.756927,540.023315 350.411591,540.690369 362.048615,540.635010 
	C372.016846,540.587524 382.029602,539.898315 392.890472,541.441589 
M686.135010,431.878784 
	C688.188293,441.463989 691.383484,450.736084 693.933228,460.168640 
	C697.565002,473.603943 701.731384,486.866974 705.664001,500.201843 
	C710.407654,516.286682 716.992065,531.702515 724.083984,546.862549 
	C734.078613,568.227661 745.342651,588.923340 758.400879,608.597351 
	C760.401245,611.611084 762.255432,615.163208 765.109985,617.069824 
	C769.938599,620.295044 773.582031,624.634583 777.018555,628.906555 
	C787.317749,641.709961 800.086975,650.634094 815.730225,655.215698 
	C818.263000,655.957458 820.944092,657.766357 824.006226,656.763611 
	C830.581238,654.610352 837.514648,653.652039 843.862366,650.713501 
	C849.541199,648.084656 855.550537,647.624817 861.772217,647.365173 
	C865.672668,647.202454 869.619019,647.621155 873.500854,647.023071 
	C882.617310,645.618469 891.800781,644.284241 894.635071,633.231628 
	C894.670715,633.092712 894.856079,632.988708 894.978516,632.875977 
	C897.264709,630.770813 896.005737,629.354492 893.975403,628.265076 
	C890.588074,626.447632 887.592590,624.044861 884.378784,622.001831 
	C879.537537,618.924255 876.171631,613.989685 871.321045,611.275146 
	C860.098022,604.994446 849.740112,597.726746 840.799133,588.469177 
	C840.225281,587.874939 839.611938,587.229065 838.885376,586.885559 
	C826.703552,581.126221 818.993286,569.999390 808.960083,561.667114 
	C799.281616,553.629456 791.880432,543.144226 784.373108,533.017151 
	C767.993958,510.922180 755.103699,486.794617 743.768799,461.806305 
	C737.032532,446.955780 732.051453,431.523682 727.831360,415.763214 
	C724.421509,403.028961 725.269775,390.103546 725.145813,377.306549 
	C725.068298,369.302765 723.927002,362.982605 717.116394,358.351196 
	C715.762573,357.430573 714.723938,356.053375 713.510071,354.918671 
	C701.859192,344.027740 690.230164,333.121246 675.643188,326.059723 
	C673.478760,325.011902 671.372681,324.418823 668.976013,324.359589 
	C661.035095,324.163361 653.994568,326.319824 647.619446,331.228729 
	C640.539490,336.680359 633.973083,342.869934 625.922180,346.979645 
	C627.241333,361.738068 629.847412,364.642975 644.494019,367.829895 
	C646.108337,368.181152 647.961182,368.391571 649.206116,369.328247 
	C656.763367,375.014282 665.041016,379.872772 671.344360,387.053558 
	C676.927429,393.413818 678.056213,401.738464 680.345764,409.521454 
	C682.444275,416.654968 681.965881,424.442322 686.135010,431.878784 
M490.872925,644.324158 
	C489.428009,646.047607 487.983093,647.770996 486.184845,649.915894 
	C496.898834,649.160950 507.130676,649.677551 515.713318,643.015442 
	C516.565613,642.353882 518.025513,641.744629 518.940125,642.011963 
	C525.201233,643.842224 529.712830,640.022034 534.508972,637.340088 
	C540.021362,634.257690 545.155823,630.437195 550.830322,627.723206 
	C557.214355,624.669800 563.119629,620.815186 568.047241,616.050415 
	C574.527710,609.783997 580.940796,603.503662 587.969971,597.846619 
	C589.489929,596.623413 591.065674,595.024658 591.728210,593.264709 
	C593.667908,588.112305 597.880188,584.665222 600.863708,580.315674 
	C605.257080,573.910706 610.608582,568.090332 613.527954,560.798828 
	C615.884827,554.912231 618.667053,549.223999 621.932922,543.880615 
	C630.934998,529.151855 637.184082,513.233215 642.824646,497.061249 
	C646.498840,486.527039 650.137451,475.960541 655.343079,466.120331 
	C662.831055,451.965881 657.777588,442.775116 649.860779,433.523712 
	C645.190186,428.065704 637.807373,425.781799 632.892334,420.680389 
	C622.990845,410.403564 610.838257,405.664612 596.998169,404.370300 
	C589.993408,403.715271 585.756958,409.085297 587.963623,415.880676 
	C589.509705,420.641632 591.757996,425.103363 593.956055,429.593719 
	C596.238525,434.256622 598.123413,439.188080 597.163757,444.470215 
	C593.788940,463.044647 589.717773,481.434357 585.004272,499.755432 
	C580.958191,515.482300 572.138550,528.791809 566.405396,543.616760 
	C558.802551,563.276367 545.185303,579.930298 532.906067,596.983032 
	C520.701721,613.931824 506.901764,629.710999 490.872925,644.324158 
M199.856964,483.706848 
	C202.792160,489.556366 206.444000,494.898743 211.345291,499.274628 
	C215.760086,503.216095 220.635529,505.813416 226.713211,503.085754 
	C232.907471,500.305695 237.984879,496.071625 241.722061,490.437042 
	C251.418060,475.818420 248.693604,460.998383 241.366547,446.665436 
	C235.867798,435.908966 226.459717,428.579498 216.559952,421.972565 
	C211.997543,418.927704 207.486038,416.167908 201.841202,415.055206 
	C194.252182,413.559265 186.933792,415.187744 179.530045,415.690155 
	C175.605957,415.956421 174.011932,419.120697 175.447235,423.009308 
	C182.916245,443.244659 189.480850,463.846313 199.856964,483.706848 
M360.976105,429.192657 
	C354.799713,443.710876 346.651855,457.338776 341.463165,472.295349 
	C340.700775,474.492920 338.402405,476.996429 340.666931,479.199951 
	C342.850372,481.324524 345.703400,479.897278 348.237793,479.184662 
	C349.032013,478.961365 349.766113,478.532959 350.544250,478.242615 
	C369.582611,471.137543 387.421173,461.524139 405.329529,452.055176 
	C410.441010,449.352478 415.570068,446.683014 420.694580,444.005066 
	C427.127899,440.643188 429.367432,432.592621 425.185883,426.767181 
	C417.797546,416.474274 409.573547,407.077606 398.742645,400.027771 
	C386.764282,392.231110 378.369049,392.104675 366.856903,400.452789 
	C363.857727,402.627625 362.623138,405.336670 363.533234,408.600189 
	C365.487213,415.606873 363.879425,422.062164 360.976105,429.192657 
z"/>
</svg>